<svg width="19" height="20" viewBox="0 0 19 20" fill="none" xmlns="http://www.w3.org/2000/svg">
<path d="M9.5 0C6.58983 0 4.22222 2.36105 4.22222 5.26316C4.22222 8.16526 6.58983 10.5263 9.5 10.5263C12.4102 10.5263 14.7778 8.16526 14.7778 5.26316C14.7778 2.36105 12.4102 0 9.5 0ZM9.5 8.42105C7.75411 8.42105 6.33333 7.00421 6.33333 5.26316C6.33333 3.52211 7.75411 2.10526 9.5 2.10526C11.2459 2.10526 12.6667 3.52211 12.6667 5.26316C12.6667 7.00421 11.2459 8.42105 9.5 8.42105ZM19 20V18.9474C19 14.8853 15.6845 11.5789 11.6111 11.5789H7.38889C3.31444 11.5789 0 14.8853 0 18.9474V20H2.11111V18.9474C2.11111 16.0453 4.47872 13.6842 7.38889 13.6842H11.6111C14.5213 13.6842 16.8889 16.0453 16.8889 18.9474V20H19Z" fill="white"/>
</svg>
