<svg width="14" height="8" viewBox="0 0 14 8" fill="none" xmlns="http://www.w3.org/2000/svg">
<path fill-rule="evenodd" clip-rule="evenodd" d="M1.14543 6.85482C1.09887 6.80837 1.06192 6.75319 1.03672 6.69245C1.01151 6.6317 0.998535 6.56658 0.998535 6.50082C0.998535 6.43505 1.01151 6.36993 1.03672 6.30918C1.06192 6.24844 1.09887 6.19326 1.14543 6.14682L7.14543 0.146815C7.19187 0.100252 7.24705 0.0633094 7.3078 0.0381028C7.36854 0.0128963 7.43366 -7.84826e-05 7.49943 -7.84855e-05C7.5652 -7.84883e-05 7.63032 0.0128962 7.69106 0.0381028C7.75181 0.0633094 7.80698 0.100252 7.85343 0.146815L13.8534 6.14681C13.9473 6.2407 14.0001 6.36804 14.0001 6.50081C14.0001 6.63359 13.9473 6.76093 13.8534 6.85481C13.7595 6.9487 13.6322 7.00145 13.4994 7.00145C13.3667 7.00145 13.2393 6.9487 13.1454 6.85481L7.49943 1.20781L1.85343 6.85482C1.80698 6.90138 1.75181 6.93832 1.69106 6.96353C1.63032 6.98873 1.5652 7.00171 1.49943 7.00171C1.43366 7.00171 1.36854 6.98873 1.3078 6.96353C1.24705 6.93832 1.19187 6.90138 1.14543 6.85482Z" fill="#FD383E"/>
</svg>
